<?xml version="1.0" standalone="no"?>
<!DOCTYPE svg PUBLIC "-//W3C//DTD SVG 20010904//EN"
 "http://www.w3.org/TR/2001/REC-SVG-20010904/DTD/svg10.dtd">
<svg version="1.0" xmlns="http://www.w3.org/2000/svg"
 width="128.000000pt" height="128.000000pt" viewBox="0 0 128.000000 128.000000"
 preserveAspectRatio="xMidYMid meet">
<metadata>
Created by potrace 1.11, written by Peter Selinger 2001-2013
</metadata>
<g transform="translate(0.000000,128.000000) scale(0.100000,-0.100000)"
fill="#000000" stroke="none">
<path d="M960 1255 c-37 -39 -12 -52 33 -18 20 16 36 31 37 36 0 17 -49 5 -70
-18z"/>
<path d="M1150 1199 c-19 -11 -26 -17 -15 -14 11 4 32 9 47 12 15 3 25 9 22
14 -7 12 -14 11 -54 -12z"/>
<path d="M1235 1210 l-20 -9 20 0 c11 0 27 4 35 9 13 9 13 10 0 9 -8 0 -24 -4
-35 -9z"/>
<path d="M195 1178 c-10 -6 -58 -21 -105 -33 l-85 -21 -3 -67 c-2 -40 1 -67 7
-67 6 0 23 19 40 43 40 58 77 91 141 126 30 17 48 31 40 31 -8 -1 -24 -6 -35
-12z"/>
<path d="M320 1170 c0 -5 5 -10 11 -10 5 0 7 5 4 10 -3 6 -8 10 -11 10 -2 0
-4 -4 -4 -10z"/>
<path d="M593 1153 c9 -2 23 -2 30 0 6 3 -1 5 -18 5 -16 0 -22 -2 -12 -5z"/>
<path d="M194 1092 c-6 -4 -30 -33 -53 -65 -46 -63 -68 -78 -81 -56 -7 11 -10
9 -16 -6 -4 -11 -16 -26 -26 -33 -16 -12 -18 -30 -18 -170 0 -141 2 -161 21
-197 12 -22 33 -49 48 -59 25 -18 25 -18 -3 12 l-30 32 117 0 c63 0 118 4 121
8 6 10 68 8 85 -2 6 -4 89 -9 183 -12 94 -2 173 -6 176 -9 3 -3 34 -2 69 1 38
4 68 3 75 -4 7 -5 36 -13 63 -17 69 -9 85 -15 85 -28 0 -7 16 -36 35 -64 23
-34 29 -50 19 -46 -9 3 -39 6 -68 7 -33 1 -51 5 -52 14 -1 6 -2 15 -3 20 0 4
-34 7 -73 7 -40 0 -101 4 -135 8 -60 9 -61 8 -56 -12 6 -24 44 -47 118 -73 28
-9 44 -17 36 -17 -7 -1 -11 -7 -7 -16 3 -10 -1 -15 -13 -15 -27 0 -52 11 -46
20 3 4 -2 11 -11 14 -8 3 -12 2 -9 -4 3 -6 -5 -10 -19 -10 -14 0 -28 5 -31 10
-4 6 -20 9 -37 8 -32 -3 -32 0 -13 -101 3 -15 2 -26 -3 -25 -9 3 -72 -56 -72
-67 0 -4 7 -5 15 -1 25 9 32 -44 9 -61 -43 -33 -244 11 -244 53 0 8 -5 14 -10
14 -6 0 -33 11 -62 25 -60 29 -71 30 -88 10 -7 -8 -21 -15 -31 -15 -11 0 -21
-9 -25 -25 -4 -16 -17 -28 -42 -36 -32 -11 -47 -14 -84 -18 -5 -1 -8 -21 -8
-46 l0 -45 640 0 640 0 0 175 c0 100 -4 175 -9 175 -5 0 -12 12 -16 28 -3 15
-15 38 -26 52 l-20 25 15 -32 c16 -32 22 -83 10 -83 -4 0 -26 15 -48 34 -23
19 -53 36 -67 38 -16 2 -27 12 -34 34 -5 16 -18 42 -27 57 -22 32 -24 93 -4
100 8 3 24 3 35 0 30 -8 28 21 -4 59 -25 30 -29 41 -25 90 1 14 -3 29 -9 33
-6 3 -11 1 -11 -5 0 -6 -13 -2 -29 9 -20 15 -31 17 -33 9 -6 -16 -53 3 -92 37
-16 14 -36 25 -45 25 -14 0 -14 -2 -1 -10 13 -8 12 -10 -3 -10 -21 0 -59 18
-69 34 -6 8 -8 8 -8 -1 0 -6 11 -20 25 -31 30 -24 32 -36 5 -27 -11 3 -20 2
-20 -3 0 -12 49 -34 61 -26 12 7 41 -15 34 -26 -3 -4 13 -28 35 -53 38 -42 42
-44 87 -41 30 2 56 -2 71 -12 27 -17 29 -34 4 -27 -10 2 -24 -3 -31 -11 -25
-30 -49 -17 -140 75 -76 76 -112 89 -238 85 -63 -1 -129 -9 -158 -19 -27 -8
-62 -18 -76 -21 -14 -3 -42 -17 -62 -30 -20 -14 -58 -29 -84 -35 -26 -5 -59
-13 -72 -17 -42 -13 -15 12 57 52 79 43 112 71 112 95 0 24 24 40 64 42 39 2
43 6 24 25 -25 25 8 34 114 33 l104 -2 -1 28 c0 15 -5 27 -10 27 -6 -1 -46 -5
-90 -8 -168 -14 -261 -28 -284 -43 -15 -10 -34 -13 -57 -8 -24 4 -48 0 -81
-15 -25 -11 -49 -18 -52 -15 -5 6 23 60 47 88 8 9 22 17 31 17 18 1 92 59 75
60 -6 0 -17 -7 -24 -15 -32 -38 -51 -5 -30 51 12 29 10 37 -6 26z m-19 -323
l40 -6 -35 -1 c-19 0 -53 6 -75 13 -39 14 -39 14 -5 8 19 -4 53 -10 75 -14z
m145 17 c0 -2 -8 -10 -17 -17 -16 -13 -17 -12 -4 4 13 16 21 21 21 13z m-44
-35 c-11 -17 -74 -41 -108 -41 -19 0 -43 6 -54 14 -17 13 -13 14 42 9 45 -4
68 -1 90 10 34 19 37 20 30 8z m888 -380 c4 -5 -3 -7 -14 -4 -23 6 -26 13 -6
13 8 0 17 -4 20 -9z m-249 -21 c-3 -5 -14 -10 -23 -10 -15 0 -15 2 -2 10 20
13 33 13 25 0z m-90 -180 c-3 -5 -18 -9 -33 -9 l-27 1 30 8 c17 4 31 8 33 9 2
0 0 -3 -3 -9z"/>
<path d="M570 1050 c0 -5 5 -10 11 -10 5 0 7 5 4 10 -3 6 -8 10 -11 10 -2 0
-4 -4 -4 -10z"/>
<path d="M1230 1034 c-18 -18 -31 -23 -47 -19 -15 3 -37 -4 -63 -20 -22 -14
-51 -25 -64 -25 -22 0 -25 -4 -23 -29 2 -24 5 -27 22 -21 11 4 25 6 30 4 6 -2
34 14 63 36 29 22 56 40 60 40 4 0 20 14 35 30 16 17 25 30 20 30 -5 0 -20
-11 -33 -26z m-72 -46 c-3 -7 -9 -13 -14 -13 -5 -1 -19 -6 -31 -13 -35 -20
-27 -4 10 18 38 23 40 24 35 8z"/>
<path d="M395 1039 c-11 -17 1 -21 15 -4 8 9 8 15 2 15 -6 0 -14 -5 -17 -11z"/>
<path d="M850 1020 c8 -5 20 -10 25 -10 6 0 3 5 -5 10 -8 5 -19 10 -25 10 -5
0 -3 -5 5 -10z"/>
<path d="M912 989 c2 -9 -24 -14 -92 -17 -52 -2 -96 -5 -97 -6 -9 -8 20 -73
32 -73 8 0 15 3 15 7 0 6 12 8 78 11 9 1 46 0 81 -2 55 -3 64 -6 72 -26 14
-36 18 -27 6 12 -11 36 -46 78 -79 96 -13 7 -18 6 -16 -2z m68 -61 c0 -6 -7
-5 -15 2 -8 7 -15 17 -15 22 0 6 7 5 15 -2 8 -7 15 -17 15 -22z"/>
<path d="M1104 909 c-18 -20 -6 -27 14 -7 9 9 12 7 12 -10 0 -12 4 -22 9 -22
6 0 11 -15 13 -32 l3 -33 18 32 c29 54 37 80 24 81 -7 0 -26 3 -43 6 -23 3
-37 0 -50 -15z"/>
<path d="M475 889 c-10 -15 3 -25 16 -12 7 7 7 13 1 17 -6 3 -14 1 -17 -5z"/>
<path d="M1011 834 c0 -11 3 -14 6 -6 3 7 2 16 -1 19 -3 4 -6 -2 -5 -13z"/>
<path d="M1215 843 c-28 -7 -45 -23 -45 -42 0 -14 2 -14 10 -1 8 12 10 11 10
-7 0 -37 0 -38 -21 -36 -11 2 -17 -1 -14 -7 3 -6 16 -10 29 -10 12 0 26 -4 32
-9 13 -14 64 -1 64 16 0 8 -8 13 -17 12 -10 -1 -25 -1 -32 0 -22 2 1 22 28 24
26 2 29 34 4 53 -10 7 -20 13 -23 13 -3 -1 -14 -4 -25 -6z"/>
<path d="M680 800 c0 -5 5 -10 11 -10 5 0 7 5 4 10 -3 6 -8 10 -11 10 -2 0 -4
-4 -4 -10z"/>
<path d="M1131 764 c0 -11 3 -14 6 -6 3 7 2 16 -1 19 -3 4 -6 -2 -5 -13z"/>
<path d="M967 649 c7 -7 15 -10 18 -7 3 3 -2 9 -12 12 -14 6 -15 5 -6 -5z"/>
<path d="M1176 537 c3 -10 9 -15 12 -12 3 3 0 11 -7 18 -10 9 -11 8 -5 -6z"/>
<path d="M1191 494 c0 -11 3 -14 6 -6 3 7 2 16 -1 19 -3 4 -6 -2 -5 -13z"/>
<path d="M0 472 c0 -27 51 -48 79 -32 12 6 21 18 20 28 0 10 -3 12 -6 5 -7
-18 -44 -16 -71 3 -20 14 -22 14 -22 -4z"/>
<path d="M180 445 c0 -11 75 -35 93 -29 18 6 16 8 -12 20 -32 14 -81 19 -81 9z"/>
<path d="M603 363 c-20 -28 -21 -28 -134 -26 -62 1 -129 4 -147 8 -31 6 -33 5
-22 -14 26 -49 152 -81 243 -62 32 7 60 18 62 24 2 7 6 24 9 39 3 15 13 34 22
42 12 13 13 16 2 16 -8 0 -23 -12 -35 -27z"/>
<path d="M131 278 c-1 -28 -42 -68 -70 -68 -9 0 -27 7 -39 16 -21 15 -22 14
-22 -20 0 -30 4 -37 26 -42 14 -4 36 -1 48 5 29 16 70 91 63 116 -4 15 -5 14
-6 -7z"/>
</g>
</svg>
